<svg width="32px" height="32px" viewBox="0 0 68 48" fill="none" xmlns="http://www.w3.org/2000/svg" class="mr-1 inline"><path d="M66.9032 41.2558V6.74397C66.9032 4.15957 64.808 2.06445 62.2236 2.06445H5.7762C3.1918 2.06445 1.09668 4.15957 1.09668 6.74397V41.2558C1.09668 43.8402 3.1918 45.9354 5.7762 45.9354H62.2235C64.808 45.9354 66.9032 43.8402 66.9032 41.2558Z" fill="#ED1F34"></path><path d="M39.7017 33.8712C39.4755 33.8712 39.2492 33.8013 39.057 33.6617L33.9999 29.9873L28.9428 33.6616C28.5585 33.9409 28.0377 33.9409 27.6536 33.6616C27.2691 33.3823 27.1083 32.8873 27.2552 32.4353L29.1868 26.4904L24.5903 23.1508C23.9262 22.6684 23.6777 22.4878 23.6777 21.9291C23.6777 21.3233 24.1687 20.8323 24.7745 20.8323H31.0252L32.9569 14.8872C33.1037 14.4354 33.525 14.1294 34.0001 14.1294C34.4751 14.1294 34.8963 14.4353 35.0432 14.8872L36.9749 20.8323H43.226C43.7011 20.8323 44.1224 21.1382 44.2691 21.5903C44.4159 22.0421 44.255 22.5371 43.8707 22.8165L38.8136 26.4908L40.7452 32.4357C40.892 32.8876 40.7311 33.3828 40.3468 33.6621C40.1542 33.8012 39.9279 33.8712 39.7017 33.8712ZM35.8658 28.6316L37.6155 29.9029L36.9472 27.846L35.8658 28.6316ZM31.0525 27.846L30.3842 29.9029L32.1339 28.6316L31.0525 27.846ZM31.7652 25.6525L33.9997 27.276L36.2344 25.6525L35.3808 23.0256H32.6187L31.7652 25.6525ZM37.6873 23.0256L38.1005 24.2969L39.85 23.0256H37.6873V23.0256ZM28.1497 23.0256C28.6849 23.4145 29.2754 23.8434 29.8992 24.2967L30.3121 23.0256H28.1497ZM33.3315 20.832H34.6682L33.9999 18.7753L33.3315 20.832Z" fill="#134923"></path></svg>